/* XPM */
static char *_91cef142d534dc3852b67b104fe20a4aUk70a0gb6UVIzi1[] = {
/* columns rows colors chars-per-pixel */
"32 32 256 2 ",
"   c #58A432",
".  c #57A533",
"X  c #579F31",
"o  c #59A134",
"O  c #599F33",
"+  c #589C32",
"@  c #5BA335",
"#  c #5DA237",
"$  c #71BD4A",
"%  c #6EB447",
"&  c #6FB949",
"*  c #72BD4C",
"=  c #71B84A",
"-  c #71B74A",
";  c #72BA4C",
":  c #75BC4E",
">  c #579832",
",  c #5C9F35",
"<  c #5B9E35",
"1  c #5FA338",
"2  c #5B9935",
"3  c #6EB146",
"4  c #71B749",
"5  c #73BA4B",
"6  c #71B549",
"7  c #73B84B",
"8  c #71B54A",
"9  c #72B64B",
"0  c #72B44A",
"q  c #6FAF48",
"w  c #75B94D",
"e  c #74B74C",
"r  c #75BA4E",
"t  c #76BA4F",
"y  c #579231",
"u  c #76B84D",
"i  c #74B44C",
"p  c #85BF5B",
"a  c #8CC862",
"s  c #8BC55E",
"d  c #89C15D",
"f  c #87BE5C",
"g  c #83B758",
"h  c #8CC560",
"j  c #8BC35F",
"k  c #8AC15E",
"l  c #8DC661",
"z  c #8EC662",
"x  c #8CC260",
"c  c #89BE5E",
"v  c #8EC562",
"b  c #90C864",
"n  c #8CC160",
"m  c #88B55A",
"M  c #91C062",
"N  c #5B6F33",
"B  c #64733C",
"V  c #576530",
"C  c #55622F",
"Z  c #555D2E",
"A  c #636A3A",
"S  c #6A7140",
"D  c #5B6033",
"F  c #83854D",
"G  c #4C4C27",
"H  c #52522B",
"J  c #595931",
"K  c #626239",
"L  c #52502C",
"P  c #585631",
"I  c #989152",
"U  c #6F6A3C",
"Y  c #7B7646",
"T  c #514C29",
"R  c #968D51",
"E  c #534E2D",
"W  c #625C35",
"Q  c #787043",
"!  c #6F6639",
"~  c #7A7144",
"^  c #574E2F",
"/  c #75683F",
"(  c #A18754",
")  c #695938",
"_  c #89724A",
"`  c #53442C",
"'  c #58482F",
"]  c #54432C",
"[  c #533E26",
"{  c #503D28",
"}  c #503E29",
"|  c #A87F55",
" . c #8E6B48",
".. c #886645",
"X. c #926C49",
"o. c #523D2A",
"O. c #86674A",
"+. c #4F3621",
"@. c #523823",
"#. c #563B25",
"$. c #543A25",
"%. c #583D27",
"&. c #553B26",
"*. c #593E28",
"=. c #67482F",
"-. c #5A3F29",
";. c #513925",
":. c #5B402A",
">. c #A57953",
",. c #4E3521",
"<. c #533824",
"1. c #5D4029",
"2. c #543925",
"3. c #503723",
"4. c #563B26",
"5. c #4F3623",
"6. c #5C3F29",
"7. c #573C27",
"8. c #5F412B",
"9. c #5C402A",
"0. c #583D28",
"q. c #62442D",
"w. c #60422C",
"e. c #573C28",
"r. c #5D412B",
"t. c #674830",
"y. c #A1724F",
"u. c #9D6F4D",
"i. c #A87753",
"p. c #A47551",
"a. c #9E704E",
"s. c #9A6D4C",
"d. c #986C4B",
"f. c #A37451",
"g. c #A17350",
"h. c #9F714F",
"j. c #9B6E4D",
"k. c #AB7A56",
"l. c #A97955",
"z. c #A87854",
"x. c #A67753",
"c. c #A57653",
"v. c #A47552",
"b. c #A37552",
"n. c #9C6F4E",
"m. c #5A412E",
"M. c #503A29",
"N. c #A47755",
"B. c #75553D",
"V. c #563F2D",
"C. c #A67957",
"Z. c #A27655",
"A. c #805D43",
"S. c #A67958",
"D. c #7D5B42",
"F. c #836046",
"G. c #74563E",
"H. c #856248",
"J. c #89674E",
"K. c #837F7C",
"L. c #A67552",
"P. c #A0714F",
"I. c #996C4C",
"U. c #A87754",
"Y. c #A77754",
"T. c #A27351",
"R. c #A07150",
"E. c #9F7150",
"W. c #896145",
"Q. c #74523A",
"!. c #644632",
"~. c #4F3828",
"^. c #855F45",
"/. c #8B6449",
"(. c #876247",
"). c #835F45",
"_. c #815D44",
"`. c #7E5B42",
"'. c #886348",
"]. c #866147",
"[. c #846046",
"{. c #825E45",
"}. c #7F5C43",
"|. c #8B654A",
" X c #896449",
".X c #876248",
"XX c #856147",
"oX c #835F46",
"OX c #815E45",
"+X c #8C664B",
"@X c #866148",
"#X c #7F5C44",
"$X c #88654C",
"%X c #86634B",
"&X c #84634B",
"*X c #87654D",
"=X c #817A75",
"-X c #745039",
";X c #6E4C36",
":X c #6A4934",
">X c #684833",
",X c #6D4B36",
"<X c #6B4A35",
"1X c #AD7856",
"2X c #A57252",
"3X c #A87454",
"4X c #7C563E",
"5X c #7A543D",
"6X c #78533C",
"7X c #76523B",
"8X c #74503A",
"9X c #724F39",
"0X c #644532",
"qX c #79543D",
"wX c #77533C",
"eX c #73503A",
"rX c #6F4D38",
"tX c #4B3426",
"yX c #73523E",
"uX c #6C4934",
"iX c #A46F50",
"pX c #6D4A35",
"aX c #A97353",
"sX c #704C37",
"dX c #7F573F",
"fX c #6F4C37",
"gX c #AB7455",
"hX c #895D44",
"jX c #76513B",
"kX c #704D38",
"lX c #6E4B37",
"zX c #6C4A36",
"xX c #664633",
"cX c #503728",
"vX c #734F3A",
"bX c #714E39",
"nX c #745644",
"mX c #4E3426",
"MX c #4C3326",
"NX c #807C7A",
"BX c #784E3B",
"VX c #744B39",
"CX c #754C3A",
"ZX c #4B3125",
"AX c #7F5441",
"SX c #714B3A",
"DX c #704837",
"FX c #6F4837",
"GX c #4D3126",
"HX c #674334",
"JX c #857E7B",
"KX c #4B2F25",
"LX c #4E3127",
"PX c #7D7A79",
"IX c #4B2D24",
"UX c None",
/* pixels */
"+ + & $ + < j l e 6 = w k k 7 w h s 9 8 4 4 7 3 X o - % X @ - - ",
"+ + & $ + < j l e 6 = w k k 7 w h s 9 8 4 4 7 3 X o - % X @ - - ",
"O O N D > o B K 2 1 p k n x d d S A 0 9 # # 9 9 V Z 8 = C V 8 8 ",
"    T mX> . G KXy # f x v z x k ' } 9 5 < , = : ^ o.9 * ` ] 0 0 ",
"H H { ~.W ! X.X.m p t : B W i r ^ cXP D g f F ~ [ ;.P J !.) 9 9 ",
"LXLXMXtXHXBX2X| M a * $ L ZXq ; E KXIXM.c b _ AX2.@.GXGXFX/ = = ",
"xXxX^.W.rXrX9XQ.Q Y R I  ...i ; _ hXB.G.~ Y O.{.;X,X0X<XR.>.R R ",
"jXjXv.z.7XbXkXkXDXVXiXaX1X| u * ( 3X+X'.SXSX.X[.bXbXkX5Xv.i.gXgX",
"h.h.4XqXh.R.].].E.n.8.q.L.>./ U B.dXp.Z.=X=XN.n.kXbXoXD.*.t.x.x.",
"i.i.8XkXf.v.XXXXz.v.4.-.f.f.CXDX<XQ.L.C.K.JXC.a.9X8X/.).2.w.i.i.",
"x.x.7XfX8XbX$.%.y.Y.[.). X XH.A.$.-. X|.*X*X X'.XX'.v.x.T.f.z.z.",
"g.g.6XbX8XbX7.-.y.z./..X[.[.H._.$.*.A.).{.). X'.).(.v.x.c.x.z.z.",
"8X8XoX'.f.v.f.p.l.Y./.oX9XbX9X9XrX:X&.$.@.r.c.s.$.*..X(.vX4Xi.i.",
"vXvXOX.Xx.l.Y.i.v.g. XoXbXrX;X;XvX,X3.+.+.6.i.u.@.7.oX).lX6Xi.i.",
"E.E.8.-.v.x.5X9X6.9.[.XXbX,X2.7.).D.3.3.>X8Xi.h.,X<XbXbX,XqXz.z.",
"b.b.-.#.h.y.9X<X<.$.{.[.jX9X7.-.'.).%.%.rXqXi.y.jX8XeXeX9X4Xf.f.",
"'.'.kXzX9X9XsXfX,X,XkXwXf.L.T.f.Y.x.T.y..X/.i.z.c.v.v.v.U.a.8X8X",
").).6XjXQ.8X9XvX7X7XfXjXb.i.l.l.f.v.l.Y.).[.f.c.x.x.l.z.g.I.jXjX",
"9X9Xh.x.i.v.(.(.v.f.9XbX.X|.Y.v.8X5Xl.p.%.%.(.|..X/.l.a.$.w.v.v.",
"Q.Q.f.l.p.g.$X$Xc.v.Q.eXoX.XY.f.bXjXv.h.%.%.A.[.'./.c.s.$.q.Y.Y.",
"v.v.k.v.6.m.PXK.J./.H.).bXjXx.v.vXrX8XjXoX`.&.q.x.T.Q.qXh.T.z.z.",
"v.v.f.u.%.V.PXNX&X^.)._.bX8Xg.R.Q.bXbX9XoX`.+.1.v.P.8X5Xz.l.v.v.",
"bXbX0.%._.oXyXyX9XkX&.-.[.XXjXjXXX.XH._.e.@.,.$.kX5Xf.i.l.h.jXjX",
"8X8X7.4.OX^.pXuXsXlX3.4.).oX,X,X}.).+X(.0.$.-.w.bX6Xh.p.l.h.kXkX",
"v.v.jXlX9X;X@.@.,X,X@.2.kXrX2.3.3.8.x.v.bX8Xv.g.@X).bXqXl.R.kXkX",
"v.v.Q.,X;X<X&.4.9X9X$.4.fX;X%.&.+.6.f.g.9XjXv.g.|.].rX7Xv.u.jXjX",
"(.(.*.3.@.7.#XXXf.g.bXpXfX8Xg.u.$.2.9X9XfXrX9X4Xz.T.9XrXvX4Xf.f.",
"[.[.:.&.<.0.[./.v.f.wX9XfX8XT.a.#.$.kX9XjXjX,XwXy.j.jXbX:XjXz.z.",
"'.'.[.OX;XsXXX.X.X.X'.[.rX;X-XsX3.7.[. Xx.y.9X:X$.-.F.`.5.8.l.l.",
"}.}./.|.nXnXH.'.|./.A.`.qX6XkXzX4.6.OX].R.n.wX;X+.4./.(.r.=.s.s.",
"4.4.u.S.K.NX%X'.x.T.4.-.p.v.8XfXfXrXkXbXbXQ..X`.3.*.p.z.z.d.$.$.",
"4.4.u.S.K.NX%X'.x.T.4.-.p.v.8XfXfXrXkXbXbXQ..X`.3.*.p.z.z.d.$.$."
};
