/* XPM */
static char *_957e2b8c1a8452ca244741e951b04a2erh3dbMED2n4CQDe[] = {
/* columns rows colors chars-per-pixel */
"30 30 64 1 ",
"  c gray51",
". c #818181",
"X c #808080",
"o c gray50",
"O c gray47",
"+ c #777777",
"@ c #767676",
"# c gray46",
"$ c #747474",
"% c gray43",
"& c #6D6D6D",
"* c #6C6C6C",
"= c gray42",
"- c #6A6A6A",
"; c #646464",
": c gray52",
"> c #848484",
", c #838383",
"< c #7E7E7E",
"1 c gray49",
"2 c #7B7B7B",
"3 c gray48",
"4 c #797979",
"5 c gray45",
"6 c #727272",
"7 c #717171",
"8 c #6F6F6F",
"9 c DimGray",
"0 c #676767",
"q c gray40",
"w c #656565",
"e c #626262",
"r c gray38",
"t c gray36",
"y c #5B5B5B",
"u c #5A5A5A",
"i c gray35",
"p c #585858",
"a c #565656",
"s c #535353",
"d c gray32",
"f c None",
"g c black",
"h c black",
"j c black",
"k c black",
"l c black",
"z c black",
"x c black",
"c c black",
"v c black",
"b c black",
"n c black",
"m c black",
"M c black",
"N c black",
"B c black",
"V c black",
"C c black",
"Z c black",
"A c black",
"S c black",
"D c black",
"F c black",
/* pixels */
"%5tuiiyyu;%O:X>3dp@O44567%6332",
"5$*******&@OoX.1r;X O@&*--===*",
"$@#+oXXXXX X%*&&-*X,...<;e$$$$",
"%@#+.   .. .*---*%X   ,Xwe@+@#",
"*$e;&%%&wq%%==-*oo8%+OOO$#XX+@",
"%$ee-==-rr9-=*=%..&=$###@+XX@@",
"5+<<#$###5e;$+XX4O#$&*****&&*&",
"@O, 4+##+$e;$+..@##$&********&",
"5O.  X%=**--**&&**=%<XXXXXXX.o",
"&+X. X&-======--==-*X   .... o",
"q*&%+O$$$$*====*$$;;+OO+%&&*qw",
"0**%#@@@@#*=***&##;;#@@#&**=re",
"OXXo+@@@@#*&<XXoO@$$@@@+oXXXo1",
"   .+@###$*&o..X+######@X...,X",
"O+++@#&***==*&&&*=ee=***&&&&@+",
"=@@@+@=-**========;e=******&#@",
"=OX. o;woo&*$$$$#@<oXXXXXXXXXX",
"%O. ,Xe;..&*#@@@#@.           ",
"%#%%%&--%%==*%@#;;@4+@%%%%%8X.",
"%$*=**==--&&&%#$rr$@+@&***=&oX",
"7@#+Xo&--&oX.<%-rr-%X.XXXo@#++",
"+#@O .%=-&X ,X%=;;-%X    .O+++",
"ae#+OO#$=*+OOO#@<oXo4OOOOOX. X",
"sr$###@$=*$###@+ ,, @####@X. o",
"%5&*****-=*****%.,, %&&&**&&&%",
"7#%&&&&&&&&&**-&oX.o*-==**==*%",
"%OXXXXXXXXXX+$*=&&&*rr-=$##@o.",
"%O.........X+$*=***=;;=%#@#@X.",
"%@+++@%&%&&&**=*$##@<o.XO#&*&%",
"#####$=---****=*#@@+. .X+#*==*"
};
